<svg width="37" height="37" viewBox="0 0 37 37" fill="none" xmlns="http://www.w3.org/2000/svg">
<path d="M18.5 12.3815C15.1311 12.3815 12.3818 15.1309 12.3818 18.4998C12.3818 21.8687 15.1311 24.6181 18.5 24.6181C21.869 24.6181 24.6183 21.8687 24.6183 18.4998C24.6183 15.1309 21.869 12.3815 18.5 12.3815ZM36.8502 18.4998C36.8502 15.9662 36.8732 13.4556 36.7309 10.9266C36.5886 7.98906 35.9185 5.38203 33.7705 3.23398C31.6178 1.08135 29.0154 0.415818 26.0779 0.273533C23.5443 0.131248 21.0336 0.154197 18.5046 0.154197C15.971 0.154197 13.4604 0.131248 10.9314 0.273533C7.99388 0.415818 5.38685 1.08594 3.2388 3.23398C1.08617 5.38662 0.42064 7.98906 0.278355 10.9266C0.13607 13.4602 0.159019 15.9708 0.159019 18.4998C0.159019 21.0288 0.13607 23.544 0.278355 26.073C0.42064 29.0105 1.09076 31.6176 3.2388 33.7656C5.39144 35.9183 7.99388 36.5838 10.9314 36.7261C13.465 36.8684 15.9756 36.8454 18.5046 36.8454C21.0382 36.8454 23.5489 36.8684 26.0779 36.7261C29.0154 36.5838 31.6224 35.9137 33.7705 33.7656C35.9231 31.613 36.5886 29.0105 36.7309 26.073C36.8778 23.544 36.8502 21.0334 36.8502 18.4998ZM18.5 27.9136C13.2906 27.9136 9.08627 23.7093 9.08627 18.4998C9.08627 13.2903 13.2906 9.08603 18.5 9.08603C23.7095 9.08603 27.9138 13.2903 27.9138 18.4998C27.9138 23.7093 23.7095 27.9136 18.5 27.9136ZM28.2994 10.899C27.083 10.899 26.1008 9.91679 26.1008 8.70049C26.1008 7.48418 27.083 6.50195 28.2994 6.50195C29.5157 6.50195 30.4979 7.48418 30.4979 8.70049C30.4983 8.9893 30.4416 9.27536 30.3313 9.54226C30.2209 9.80916 30.059 10.0517 29.8548 10.2559C29.6505 10.4601 29.408 10.622 29.1411 10.7324C28.8742 10.8428 28.5882 10.8994 28.2994 10.899Z" fill="white"/>
</svg>
