<svg width="43" height="35" viewBox="0 0 43 35" fill="none" xmlns="http://www.w3.org/2000/svg">
<path d="M37.846 8.70981C37.8739 9.09297 37.8739 9.47395 37.8739 9.85492C37.8739 21.514 29.1749 34.9487 13.2771 34.9487C8.37918 34.9487 3.82898 33.5015 -5.72205e-05 30.9879C0.69535 31.0689 1.365 31.0974 2.08831 31.0974C5.97957 31.107 9.76065 29.7796 12.8221 27.3293C11.0179 27.296 9.26899 26.6888 7.8195 25.5924C6.37001 24.4961 5.2923 22.9654 4.73687 21.214C5.2713 21.295 5.80788 21.3498 6.37022 21.3498C7.14504 21.3498 7.92416 21.2403 8.64747 21.0498C6.68951 20.6465 4.92891 19.5639 3.66504 17.986C2.40117 16.4081 1.71205 14.4324 1.71485 12.3947V12.2853C2.86743 12.9399 4.20458 13.3494 5.62116 13.4041C4.43443 12.5996 3.46136 11.508 2.78874 10.2267C2.11613 8.94531 1.76489 7.51403 1.76636 6.06052C1.76636 4.42278 2.19348 2.92079 2.94255 1.61147C5.11492 4.33743 7.82436 6.56753 10.8954 8.15731C13.9664 9.7471 17.3305 10.6611 20.7699 10.8402C20.6368 10.1833 20.5553 9.50241 20.5553 8.81929C20.5547 7.66096 20.7779 6.51388 21.2122 5.44361C21.6465 4.37335 22.2833 3.40089 23.0862 2.58183C23.8891 1.76277 24.8424 1.11316 25.8915 0.670157C26.9407 0.227151 28.0651 -0.000574478 29.2006 1.08832e-06C31.6904 1.08832e-06 33.9376 1.0641 35.5173 2.78504C37.4527 2.40323 39.3088 1.68246 41.0032 0.65466C40.3581 2.69268 39.0066 4.42082 37.2021 5.51534C38.9187 5.31561 40.5964 4.8551 42.1794 4.14909C40.9971 5.90747 39.532 7.44942 37.846 8.70981Z" fill="white"/>
</svg>
