<svg width="29" height="21" viewBox="0 0 29 21" fill="none" xmlns="http://www.w3.org/2000/svg">
<path d="M3.38551 0.600098H25.248C27.3105 0.600098 28.35 1.5736 28.35 3.5536V17.4466C28.35 19.4101 27.3105 20.4001 25.248 20.4001H3.38551C1.32301 20.4001 0.283508 19.4101 0.283508 17.4466V3.5536C0.283508 1.5736 1.32301 0.600098 3.38551 0.600098ZM14.3085 14.7901L25.4295 5.6656C25.8255 5.3356 26.139 4.5766 25.644 3.9001C25.1655 3.2236 24.291 3.2071 23.7135 3.6196L14.3085 9.9886L4.92001 3.6196C4.34251 3.2071 3.46801 3.2236 2.98951 3.9001C2.49451 4.5766 2.80801 5.3356 3.20401 5.6656L14.3085 14.7901Z" fill="#030CE0"/>
</svg>
