<svg width="21" height="31" viewBox="0 0 21 31" fill="none" xmlns="http://www.w3.org/2000/svg">
<path d="M9.53427 24.025C9.73726 24.3338 10.094 24.5396 10.5 24.5396C10.906 24.5396 11.2627 24.3338 11.4719 24.025L18.2504 13.7199C19.1608 12.3334 19.6898 10.8076 19.6898 9.03965C19.6837 3.92949 15.6054 0 10.5 0C5.39455 0 1.31634 3.92949 1.31634 9.03965C1.31634 10.8076 1.84534 12.3334 2.75571 13.7199L9.53427 24.025ZM10.5 3.875C13.3972 3.875 15.7469 6.18789 15.7469 9.03965C15.7469 11.8914 13.3972 14.2043 10.5 14.2043C7.60281 14.2043 5.25307 11.8914 5.25307 9.03965C5.25307 6.18789 7.60281 3.875 10.5 3.875ZM17.2293 19.5869L10.5 28.4146L3.77065 19.5869C1.47012 20.7736 0 22.5477 0 24.5396C0 28.1059 4.69947 31 10.5 31C16.3005 31 21 28.1059 21 24.5396C21 22.5477 19.5299 20.7736 17.2293 19.5869Z" fill="#F76800"/>
</svg>
