<svg width="31" height="25" viewBox="0 0 31 25" fill="none" xmlns="http://www.w3.org/2000/svg">
<path d="M26.7468 15.9922C26.598 14.9584 25.7997 14.1524 24.7721 13.9121C20.7778 12.9759 19.7764 10.6757 19.6075 8.12445C18.8991 7.9927 17.639 7.8501 15.5 7.8501C13.361 7.8501 12.1008 7.9927 11.3925 8.12445C11.2235 10.6757 10.2222 12.9759 6.2279 13.9121C5.20025 14.1539 4.402 14.9584 4.2532 15.9922L3.48285 21.3273C3.2116 23.2059 4.5911 24.9001 6.51 24.9001H24.49C26.4074 24.9001 27.7884 23.2059 27.5172 21.3273L26.7468 15.9922ZM15.5 21.0127C13.3377 21.0127 11.5847 19.2767 11.5847 17.1377C11.5847 14.9987 13.3377 13.2627 15.5 13.2627C17.6622 13.2627 19.4153 14.9987 19.4153 17.1377C19.4153 19.2767 17.6607 21.0127 15.5 21.0127ZM30.9225 6.3001C30.8853 3.9751 24.9674 0.101648 15.5 0.100098C6.03105 0.101648 0.113149 3.9751 0.0774986 6.3001C0.0418486 8.6251 0.110049 11.6507 4.00675 11.1469C8.5653 10.5564 8.28475 8.96455 8.28475 6.68915C8.28475 5.10195 11.9923 4.7191 15.5 4.7191C19.0077 4.7191 22.7137 5.10195 22.7153 6.68915C22.7153 8.96455 22.4347 10.5564 26.9933 11.1469C30.8884 11.6507 30.9582 8.6251 30.9225 6.3001Z" fill="#030CE0"/>
</svg>
