<svg width="32" height="23" viewBox="0 0 32 23" fill="none" xmlns="http://www.w3.org/2000/svg">
<path d="M30.6231 4.38033C30.1561 2.74588 28.7552 1.34492 27.3542 1.34492C23.6183 0.877929 19.6489 0.87793 15.6795 0.87793C11.7101 0.87793 7.97425 0.877929 4.00486 1.34492C2.60389 1.34492 1.20293 2.74588 0.735946 4.38033C0.268959 6.71527 0.268959 9.2837 0.268959 11.6186C0.268959 13.9536 0.268959 16.522 0.735946 18.8569C1.20293 20.4914 2.3704 21.6589 4.00486 21.8924C7.97425 22.3593 11.7101 22.3593 15.6795 22.3593C19.6489 22.3593 23.3848 22.3593 27.3542 21.8924C28.9887 21.6589 30.3896 20.4914 30.6231 18.8569C31.0901 16.522 31.0901 13.9536 31.0901 11.6186C31.0901 9.2837 31.0901 6.71527 30.6231 4.38033ZM9.14172 6.48178H6.80678V18.39H4.70534V6.48178H2.6039V4.38033H9.14172V6.48178ZM14.7456 18.39H12.8776V17.2225C12.1771 18.1565 11.4767 18.39 10.7762 18.39C10.0757 18.39 9.8422 18.1565 9.6087 17.6895C9.6087 17.456 9.37521 16.989 9.37521 16.055V7.88274H11.2432V16.055C11.2432 16.2885 11.4767 16.522 11.7101 16.522C12.1771 16.522 12.4106 16.2885 12.8776 15.588V7.88274H14.7456V18.39ZM21.7504 15.121C21.7504 16.055 21.7504 16.7555 21.5169 17.2225C21.2834 17.923 20.8164 18.39 20.1159 18.39C19.4154 18.39 18.715 17.923 18.248 17.2225V18.1565H16.38V4.38033H18.248V8.81671C18.9484 8.11623 19.4154 7.64925 20.1159 7.64925C20.8164 7.64925 21.2834 8.11623 21.5169 8.81671C21.7504 9.2837 21.7504 9.98418 21.7504 10.9182V15.121ZM28.7552 13.4866H25.0193V15.3545C25.0193 16.2885 25.2528 16.7555 25.9533 16.7555C26.4202 16.7555 26.6537 16.522 26.8872 16.055V14.8876H28.7552V16.2885C28.7552 16.7555 28.5217 16.989 28.2882 17.456C27.8212 18.1565 27.1207 18.6234 25.9533 18.6234C25.0193 18.6234 24.3188 18.1565 23.6183 17.456C23.1513 16.989 22.9178 16.055 22.9178 15.121V11.6186C22.9178 10.4512 23.1513 9.75069 23.3848 9.2837C23.8518 8.58322 24.5523 8.11623 25.7198 8.11623C26.6537 8.11623 27.3542 8.58322 27.8212 9.2837C28.2882 9.75069 28.2882 10.6847 28.2882 11.6186V13.4866H28.7552Z" fill="white"/>
</svg>
